<svg width="104" height="27" viewBox="0 0 104 27" fill="none" xmlns="http://www.w3.org/2000/svg">
<path d="M102 2.00482L63.6345 2.00482C62.2323 2.10361 59.1147 2.97302 57.8624 5.66028L53.1665 19.9857C51.9925 22.3569 49.4488 22.9497 47.6878 19.9857L43.1875 7.63621C42.0135 4.57355 39.4699 5.16633 38.4916 7.63621L34.8717 23.3448C33.5999 26.3087 29.7845 25.6172 28.5126 23.3448L21.0656 5.66028C19.6099 2.00485 17.2876 1.97189 15.7944 2.00482H2" stroke="#00D673" stroke-width="3" stroke-linecap="round"/>
<path d="M67.9352 17.0057H62.9781L61.941 19.9852H59.6295L64.4635 7.18835H66.4586L71.3014 19.9852H68.9811L67.9352 17.0057ZM63.6022 15.2128H67.3112L65.4567 9.90417L63.6022 15.2128ZM76.5836 17.1991L79.8356 7.18835H82.2789L77.6735 19.9852H75.5201L70.9323 7.18835H73.3668L76.5836 17.1991ZM91.2086 14.2723H85.9528V18.2098H92.0963V19.9852H83.7291V7.18835H92.0348V8.98132H85.9528V12.5145H91.2086V14.2723Z" fill="white"/>
</svg>
