<svg width="77" height="59" viewBox="0 0 77 59" fill="none" xmlns="http://www.w3.org/2000/svg">
<path fill-rule="evenodd" clip-rule="evenodd" d="M0 6.5C0 2.91016 2.91016 0 6.5 0H70.5C74.0898 0 77 2.91016 77 6.5C77 10.0898 74.0898 13 70.5 13H6.5C2.91016 13 0 10.0898 0 6.5ZM20 29.5C20 25.9102 22.9102 23 26.5 23H70.5C74.0898 23 77 25.9102 77 29.5C77 33.0898 74.0898 36 70.5 36H26.5C22.9102 36 20 33.0898 20 29.5ZM6.5 46C2.91016 46 0 48.9102 0 52.5C0 56.0898 2.91016 59 6.5 59H70.5C74.0898 59 77 56.0898 77 52.5C77 48.9102 74.0898 46 70.5 46H6.5Z" fill="#00D673"/>
</svg>
