<svg width="102" height="82" viewBox="0 0 102 82" fill="none" xmlns="http://www.w3.org/2000/svg">
<path fill-rule="evenodd" clip-rule="evenodd" d="M0 6.87207C0 3.07673 3.07673 0 6.87207 0H95.1279C98.9233 0 102 3.07673 102 6.87207C102 10.6674 98.9233 13.7441 95.1279 13.7441H6.87207C3.07673 13.7441 0 10.6674 0 6.87207ZM26.4912 40.6153C26.4912 36.8205 29.5675 33.7441 33.3624 33.7441H95.1288C98.9237 33.7441 102 36.8205 102 40.6153C102 44.4102 98.9237 47.4865 95.1288 47.4865H33.3624C29.5675 47.4865 26.4912 44.4102 26.4912 40.6153ZM0 74.3577C0 70.5628 3.07633 67.4865 6.87119 67.4865H95.1288C98.9237 67.4865 102 70.5628 102 74.3577C102 78.1525 98.9237 81.2289 95.1288 81.2289H6.87119C3.07634 81.2289 0 78.1525 0 74.3577Z" fill="#00D673"/>
</svg>
